<svg xmlns="http://www.w3.org/2000/svg" width="299.988" height="480.109" viewBox="0 0 468 749">
  <defs>
    <style>
      .cls-1 {
        fill: #f44336;
      }

      .cls-1, .cls-2, .cls-3, .cls-5 {
        fill-rule: evenodd;
      }

      .cls-1, .cls-2, .cls-5 {
        opacity: 0.7;
      }

      .cls-2 {
        fill: #2196f3;
      }

      .cls-4 {
        font-size: 50px;
        text-anchor: middle;
        font-family: "Allerta Stencil";
      }

      .cls-5 {
        fill: #424242;
      }
    </style>
  </defs>
  <path id="Polygone_1" data-name="Polygone 1" class="cls-1" d="M466.934,354.653l-149.171,85.1L167.709,353.124l-0.883-171.738L316,96.282l150.054,86.634Z"/>
  <path id="Polygone_1-2" data-name="Polygone 1" class="cls-2" d="M301.434,259.859l-149.171,85.1L2.209,258.33,1.326,86.592,150.5,1.488,300.551,88.121Z"/>
  <path id="NOVA" class="cls-3" d="M134.818,632.626L110.6,589.951v22.46l24.219,42.579h11.914V583.017H134.818v49.609ZM106.6,654.99V583.017H94.681V654.99H106.6Zm58.643-20.9a33.805,33.805,0,0,0,5.859,11.377,25.779,25.779,0,0,0,8.936,7.129,29.957,29.957,0,0,0,11.132,2.881V645.81a14.726,14.726,0,0,1-6.152-2,15.671,15.671,0,0,1-5.127-5.029,27.134,27.134,0,0,1-3.467-8.252,51.967,51.967,0,0,1,0-23.682,26.569,26.569,0,0,1,3.418-8.2,15.073,15.073,0,0,1,5.078-4.883,16.477,16.477,0,0,1,6.25-2.051v-9.765a29.7,29.7,0,0,0-11.181,2.881,25.949,25.949,0,0,0-8.887,7.128,33.89,33.89,0,0,0-5.859,11.329A57.553,57.553,0,0,0,165.238,634.091Zm29.834-42.48a14.741,14.741,0,0,1,6.152,2,15.85,15.85,0,0,1,5.127,4.98,26.527,26.527,0,0,1,3.467,8.2,52.18,52.18,0,0,1,0,23.731,27.342,27.342,0,0,1-3.418,8.2,15.385,15.385,0,0,1-5.078,4.98,15.985,15.985,0,0,1-6.25,2.1v9.668A29.319,29.319,0,0,0,206.2,652.6a26.1,26.1,0,0,0,8.838-7.129,34.518,34.518,0,0,0,5.909-11.377,56.315,56.315,0,0,0,0-30.81,34.614,34.614,0,0,0-5.909-11.329,26.507,26.507,0,0,0-8.886-7.177,27.783,27.783,0,0,0-11.084-2.832v9.668Zm63.769,63.769h6.152V639.462l-15.136-56.445H236.478ZM269,636.337V655.38h5.079l23.437-72.363H284.232Zm77.149-53.222H334.525l-25.2,71.875h12.207l18.848-53.907,18.652,53.907h12.11Zm-12.4,49.023-2.734,7.91h18.652l-2.832-7.91H333.743Z"/>
  <path id="Date_and_Time" data-name="Date and Time" class="cls-3" d="M55.042,747.333H60.9V711.347H55.042v35.986ZM62.9,711.347v4.443H64.32a17.988,17.988,0,0,1,6.836,1.1,10.96,10.96,0,0,1,4.175,2.881,9.478,9.478,0,0,1,2.075,3.979,18.669,18.669,0,0,1,.537,4.444q0,7.227-2.637,11.035t-8.594,3.808H62.9v4.3h5.762a19.141,19.141,0,0,0,2.1-.171,14.485,14.485,0,0,0,3.125-.781,16.321,16.321,0,0,0,3.54-1.831,12.4,12.4,0,0,0,3.3-3.345,18.867,18.867,0,0,0,2.417-5.273,26.463,26.463,0,0,0,.952-7.593,18.04,18.04,0,0,0-1.123-6.274,15.75,15.75,0,0,0-3.393-5.445,16.582,16.582,0,0,0-5.713-3.833,20.579,20.579,0,0,0-7.983-1.44H62.9Zm34.644,25.122a4.354,4.354,0,0,1,1.538-1.538,6.157,6.157,0,0,1,2-.732,11.488,11.488,0,0,1,2.051-.2h1.074v-3.467h-2.148a14.763,14.763,0,0,0-3.858.513,10.629,10.629,0,0,0-3.394,1.563,8.418,8.418,0,0,0-2.441,2.685,7.586,7.586,0,0,0-.952,3.882,10.464,10.464,0,0,0,.659,3.955,6.492,6.492,0,0,0,1.831,2.588,7.307,7.307,0,0,0,2.71,1.416,11.582,11.582,0,0,0,3.2.439,2.949,2.949,0,0,0,.634-0.048v-3.955a3.821,3.821,0,0,1-2.612-1.27,5,5,0,0,1-.9-3.271A4.858,4.858,0,0,1,97.547,736.469Zm14.575,2.319v-6.347q0-1.708-.122-3.443a27.254,27.254,0,0,0-.464-3.442,7.03,7.03,0,0,0-1.2-2.856,6.905,6.905,0,0,0-2-1.832,8.244,8.244,0,0,0-2.539-.976,13.852,13.852,0,0,0-2.856-.293,17.446,17.446,0,0,0-3.1.269,18.4,18.4,0,0,0-2.759.708,13.111,13.111,0,0,0-2.246,1,6.089,6.089,0,0,0-1.465,1.1l2.2,3.369q0.293-.243.9-0.683a8.265,8.265,0,0,1,1.416-.806,12.476,12.476,0,0,1,1.758-.635,7.476,7.476,0,0,1,2.026-.268,10.47,10.47,0,0,1,2.027.171,2.549,2.549,0,0,1,1.44.83,4.178,4.178,0,0,1,.83,2.075,23.43,23.43,0,0,1,.244,3.808v10.3a7.291,7.291,0,0,1-1.636,1.685,5.337,5.337,0,0,1-2.124.952v3.711a10.272,10.272,0,0,0,3.2-1.392,4.83,4.83,0,0,0,1.928-2.173,5.184,5.184,0,0,0,.708,1.441,6,6,0,0,0,1.123,1.2,5.45,5.45,0,0,0,1.368.83,3.5,3.5,0,0,0,1.342.293l1.563-3.271a1.567,1.567,0,0,1-.855-0.83,5.315,5.315,0,0,1-.463-1.416,12.63,12.63,0,0,1-.2-1.539q-0.05-.756-0.049-1.147v-0.391ZM129.31,723.8H133.7v-4H129.31v-7.812H123.4v7.812h-3.614v4H123.4v14.844q0,0.732.122,2.051a12.036,12.036,0,0,0,.586,2.71,8.074,8.074,0,0,0,1.391,2.539,4.106,4.106,0,0,0,2.588,1.44,11.614,11.614,0,0,0,1.294.147q0.756,0.048,1.489.048t1.49-.024q0.756-.026,1.294-0.073c0.422-.033.846-0.082,1.269-0.147V743.72a17.432,17.432,0,0,1-2.124-.122,4.5,4.5,0,0,1-1.807-.61,3.215,3.215,0,0,1-1.245-1.416,6.173,6.173,0,0,1-.439-2.588V723.8Zm25.342,0.342a5.542,5.542,0,0,1,2.392.83,7.733,7.733,0,0,1,1.88,1.685,7.378,7.378,0,0,1,1.221,2.172,7.284,7.284,0,0,1,.415,2.442H149.281v4.3h16.748a19.009,19.009,0,0,0,.146-2.344,15.475,15.475,0,0,0-.806-4.98,13.451,13.451,0,0,0-2.319-4.249,12.352,12.352,0,0,0-3.638-3.027,12.04,12.04,0,0,0-4.76-1.416v4.59Zm-3.687,17.895a7.126,7.126,0,0,1-2.417-1.9,7.757,7.757,0,0,1-1.44-2.832,12.9,12.9,0,0,1-.464-3.54,15.177,15.177,0,0,1,.268-2.588,12.24,12.24,0,0,1,.928-2.954,8.34,8.34,0,0,1,1.831-2.563,5.728,5.728,0,0,1,2.979-1.465V719.5a10.234,10.234,0,0,0-4.468,1.319,13.05,13.05,0,0,0-3.638,3.051,14.5,14.5,0,0,0-2.466,4.371,15.348,15.348,0,0,0-.9,5.273,15.083,15.083,0,0,0,.977,5.469,14.708,14.708,0,0,0,2.636,4.443,12,12,0,0,0,4,3,11.711,11.711,0,0,0,5.03,1.1,12.7,12.7,0,0,0,5.468-1.026,10.738,10.738,0,0,0,3.76-3.027L160.9,740.2a6.781,6.781,0,0,1-1.587,1.172,12.489,12.489,0,0,1-1.807.806,9.319,9.319,0,0,1-1.709.439,9.173,9.173,0,0,1-1.343.122A7.839,7.839,0,0,1,150.965,742.035Zm42.09-5.566a4.355,4.355,0,0,1,1.538-1.538,6.159,6.159,0,0,1,2-.732,11.488,11.488,0,0,1,2.051-.2h1.074v-3.467h-2.148a14.769,14.769,0,0,0-3.858.513,10.625,10.625,0,0,0-3.393,1.563,8.414,8.414,0,0,0-2.442,2.685,7.583,7.583,0,0,0-.952,3.882,10.474,10.474,0,0,0,.659,3.955,6.5,6.5,0,0,0,1.831,2.588,7.315,7.315,0,0,0,2.71,1.416,11.585,11.585,0,0,0,3.2.439,2.954,2.954,0,0,0,.634-0.048v-3.955a3.82,3.82,0,0,1-2.612-1.27,4.994,4.994,0,0,1-.9-3.271A4.862,4.862,0,0,1,193.055,736.469Zm14.575,2.319v-6.347q0-1.708-.122-3.443a27.254,27.254,0,0,0-.464-3.442,7.03,7.03,0,0,0-1.2-2.856,6.918,6.918,0,0,0-2-1.832,8.244,8.244,0,0,0-2.539-.976,13.852,13.852,0,0,0-2.856-.293,17.448,17.448,0,0,0-3.1.269,18.414,18.414,0,0,0-2.759.708,13.11,13.11,0,0,0-2.246,1,6.1,6.1,0,0,0-1.465,1.1l2.2,3.369c0.2-.162.5-0.39,0.9-0.683a8.246,8.246,0,0,1,1.416-.806,12.465,12.465,0,0,1,1.758-.635,7.468,7.468,0,0,1,2.026-.268,10.459,10.459,0,0,1,2.026.171,2.549,2.549,0,0,1,1.441.83,4.187,4.187,0,0,1,.83,2.075,23.545,23.545,0,0,1,.244,3.808v10.3a7.291,7.291,0,0,1-1.636,1.685,5.349,5.349,0,0,1-2.124.952v3.711a10.257,10.257,0,0,0,3.2-1.392,4.832,4.832,0,0,0,1.929-2.173,5.156,5.156,0,0,0,.708,1.441,6,6,0,0,0,1.123,1.2,5.463,5.463,0,0,0,1.367.83,3.5,3.5,0,0,0,1.343.293l1.563-3.271a1.567,1.567,0,0,1-.855-0.83,5.352,5.352,0,0,1-.464-1.416,12.825,12.825,0,0,1-.195-1.539q-0.05-.756-0.049-1.147v-0.391Zm9.326-18.994v27.539h5.909V722.577l-0.635-2.783h-5.274Zm17.481,0.611a7.128,7.128,0,0,0-3.711-.9,9.909,9.909,0,0,0-3,.489,18.065,18.065,0,0,0-2.856,1.171v3.76a9.838,9.838,0,0,1,2.221-.708,10.326,10.326,0,0,1,1.831-.22,4.407,4.407,0,0,1,2.588.66,4.474,4.474,0,0,1,1.465,1.831,8.352,8.352,0,0,1,.684,2.685q0.145,1.515.146,3.174v14.99h5.957V731.855q0-1.172-.049-2.393a17.318,17.318,0,0,0-.268-2.417,11.048,11.048,0,0,0-.684-2.295,6.028,6.028,0,0,0-1.294-1.928A15.778,15.778,0,0,0,234.437,720.405Zm30.469-11.011v34.668l0.341,3.271h5.616V709.394h-5.957ZM247.035,739.35a13.087,13.087,0,0,0,2.734,5.2,8.563,8.563,0,0,0,3.345,2.319,10.786,10.786,0,0,0,3.833.708,12.405,12.405,0,0,0,3.247-.415,12.538,12.538,0,0,0,2.71-1.049v-5.078a5.183,5.183,0,0,1-4.053,1.9,4.9,4.9,0,0,1-2.612-.733,6.405,6.405,0,0,1-2.027-2,10.877,10.877,0,0,1-1.318-2.954,12.994,12.994,0,0,1-.488-3.637,14.66,14.66,0,0,1,.439-3.662,11.045,11.045,0,0,1,1.245-3.028,6.369,6.369,0,0,1,1.978-2.075,5.155,5.155,0,0,1,4.98-.22,7.053,7.053,0,0,1,1.856,1.416v-5.176a9.182,9.182,0,0,0-2.442-.976,11.88,11.88,0,0,0-2.881-.342,12.037,12.037,0,0,0-3.979.708,10.005,10.005,0,0,0-3.687,2.319,12.1,12.1,0,0,0-2.71,4.2,17.072,17.072,0,0,0-1.049,6.4A22.559,22.559,0,0,0,247.035,739.35Zm43.847-28v4h10.742v31.982h5.909V715.351h10.742v-4H290.882Zm39.99,8.447h-5.957v27.539h5.957V719.794Zm-0.488-11.279a3.388,3.388,0,0,0-2.49-1.025,3.332,3.332,0,0,0-2.442,1.025,3.508,3.508,0,0,0-.024,4.932,3.311,3.311,0,0,0,2.466,1.025,3.429,3.429,0,0,0,2.49-1,3.309,3.309,0,0,0,1.026-2.466A3.39,3.39,0,0,0,330.384,708.515Zm8.789,11.279v27.539h5.957V722.626l-0.635-2.832h-5.322ZM365,719.941a13.222,13.222,0,0,0-2.685,1.22v3.858a9,9,0,0,1,2.588-.83,14.706,14.706,0,0,1,1.464-.147,2.765,2.765,0,0,1,2.027.659,3.849,3.849,0,0,1,.952,1.832,11.808,11.808,0,0,1,.317,2.661q0.024,1.49.025,3.149v14.99h5.859v-18.75a10.622,10.622,0,0,0-.61-3.637,8.768,8.768,0,0,0-1.709-2.906,7.654,7.654,0,0,0-2.564-1.88,7.532,7.532,0,0,0-3.125-.659A8.333,8.333,0,0,0,365,719.941Zm-8.911.586a7.209,7.209,0,0,0-3.784-.928,8.514,8.514,0,0,0-2.661.439,13.016,13.016,0,0,0-2.515,1.123v3.858a9.329,9.329,0,0,1,2.271-.757,10.125,10.125,0,0,1,1.733-.22,2.777,2.777,0,0,1,2,.659,3.748,3.748,0,0,1,.977,1.832,11.017,11.017,0,0,1,.293,2.661v18.139h5.908V731.855q0-1.269.024-2.417t-0.049-2.222a10.871,10.871,0,0,0-.341-2.075,6.344,6.344,0,0,0-.855-1.88A11.826,11.826,0,0,0,356.092,720.527Zm40.65,3.613a5.546,5.546,0,0,1,2.392.83,7.733,7.733,0,0,1,1.88,1.685,7.378,7.378,0,0,1,1.221,2.172,7.284,7.284,0,0,1,.415,2.442H391.37v4.3h16.748a18.817,18.817,0,0,0,.147-2.344,15.5,15.5,0,0,0-.806-4.98,13.451,13.451,0,0,0-2.319-4.249,12.352,12.352,0,0,0-3.638-3.027,12.045,12.045,0,0,0-4.76-1.416v4.59Zm-3.687,17.895a7.116,7.116,0,0,1-2.417-1.9,7.742,7.742,0,0,1-1.44-2.832,12.9,12.9,0,0,1-.464-3.54,15.177,15.177,0,0,1,.268-2.588,12.24,12.24,0,0,1,.928-2.954,8.323,8.323,0,0,1,1.831-2.563,5.728,5.728,0,0,1,2.979-1.465V719.5a10.234,10.234,0,0,0-4.468,1.319,13.05,13.05,0,0,0-3.638,3.051,14.5,14.5,0,0,0-2.466,4.371,15.348,15.348,0,0,0-.9,5.273,15.083,15.083,0,0,0,.977,5.469,14.708,14.708,0,0,0,2.636,4.443,12,12,0,0,0,4,3,11.71,11.71,0,0,0,5.029,1.1,12.7,12.7,0,0,0,5.469-1.026,10.738,10.738,0,0,0,3.76-3.027l-2.148-3.272a6.781,6.781,0,0,1-1.587,1.172,12.489,12.489,0,0,1-1.807.806,9.319,9.319,0,0,1-1.709.439,9.173,9.173,0,0,1-1.343.122A7.839,7.839,0,0,1,393.055,742.035Z"/>
  <text id="Lorem_Ipsum" data-name="Lorem Ipsum" class="cls-4" x="-206.425" y="147.912"><tspan x="-206.425">Lorem Ipsum</tspan></text>
  <path id="Polygone_1-3" data-name="Polygone 1" class="cls-5" d="M302.934,448.314l-149.171,85.1L3.709,446.784,2.826,275.046,152,189.942l150.054,86.634Z"/>
</svg>
